<svg width="30" height="32" viewBox="0 0 30 32" fill="none" xmlns="http://www.w3.org/2000/svg">
<g clip-path="url(#clip0)">
<path d="M3.38375 31.3459H14.3888C14.9062 31.3459 15.3263 30.9071 15.3263 30.3664C15.3263 30.1574 15.3138 21.4328 15.3125 21.2238C15.3125 20.6831 14.8925 20.2443 14.375 20.2443H11.5625V16.9791H14.375C14.8925 16.9791 15.3125 16.5402 15.3125 15.9995V12.3203C15.3125 9.1282 17.7987 6.53041 20.8538 6.53041H23.4375V9.79561H21.875C20.6688 9.79561 19.6875 10.8209 19.6875 12.0813V15.9995C19.6875 16.5402 20.1075 16.9791 20.625 16.9791H24.425L23.6438 20.2443H20.625C20.1075 20.2443 19.6875 20.6831 19.6875 21.2238V30.3664C19.6875 30.9071 20.1075 31.3459 20.625 31.3459H26.6162C28.4825 31.3459 30 29.7604 30 27.8104V3.53556C30 1.58558 28.4825 0 26.6162 0H3.38375C1.5175 0 0 1.58558 0 3.53556V27.8117C0 29.7604 1.5175 31.3459 3.38375 31.3459ZM1.875 3.53556C1.875 2.66571 2.55125 1.95912 3.38375 1.95912H26.6175C27.45 1.95912 28.1262 2.66571 28.1262 3.53556V27.8117C28.1262 28.6815 27.45 29.3881 26.6175 29.3881H21.5625V22.2034H24.375C24.805 22.2034 25.18 21.8978 25.285 21.4615L26.535 16.2372C26.6825 15.6194 26.2362 15.0199 25.625 15.0199H21.5625V12.0813C21.5625 11.9036 21.705 11.7547 21.875 11.7547H24.375C24.8925 11.7547 25.3125 11.3159 25.3125 10.7752V5.55085C25.3125 5.01013 24.8925 4.57128 24.375 4.57128H20.8538C16.765 4.57128 13.4375 8.04807 13.4375 12.3203V15.0199H10.625C10.1075 15.0199 9.6875 15.4588 9.6875 15.9995V21.2238C9.6875 21.7645 10.1075 22.2034 10.625 22.2034H13.4375V29.3868H3.38375C2.55125 29.3868 1.875 28.6802 1.875 27.8104V3.53556Z" fill="#0000FF"/>
</g>
<defs>
<clipPath id="clip0">
<rect width="30" height="31.3459" fill="white"/>
</clipPath>
</defs>
</svg>
