<svg width="30" height="30" viewBox="0 0 30 30" fill="none" xmlns="http://www.w3.org/2000/svg">
<g clip-path="url(#clip0)">
<path d="M14.9999 0C6.66613 0 1.64238 5.1375 0.363625 10.2287C-0.963875 15.5087 1.35488 20.5675 6.43237 23.59C5.30362 27.685 4.61987 29.06 5.69863 29.7962C6.90863 30.6238 8.65113 28.9125 11.5624 26.6788L12.7586 25.7625C17.4449 26.37 22.2186 25.0212 25.5986 22.1213C28.4361 19.6863 29.9986 16.43 29.9986 12.9537C29.9999 5.81 23.2711 0 14.9999 0ZM24.3799 20.6975C21.3124 23.33 16.9236 24.5088 12.6449 23.8525C12.0461 23.7563 9.40487 26.0687 7.25487 27.5662C7.49738 26.6475 7.97238 25.1013 8.43363 23.375C8.54613 22.955 8.35487 22.5125 7.97112 22.3075C2.31237 19.2688 1.26863 14.3125 2.17988 10.6862C3.28488 6.30125 7.67613 1.875 14.9999 1.875C22.2374 1.875 28.1249 6.845 28.1249 12.9525C28.1249 15.875 26.7949 18.625 24.3799 20.6975Z" fill="#0000FF"/>
<path d="M8.1248 9.6875H4.3748C3.13481 9.6875 3.13356 11.5625 4.3748 11.5625H5.3123V16.875C5.3123 18.115 7.1873 18.1162 7.1873 16.875V11.5625H8.1248C9.3648 11.5625 9.36605 9.6875 8.1248 9.6875Z" fill="#0000FF"/>
<path d="M12.7449 10.2775C12.7437 10.2738 12.7399 10.2725 12.7387 10.2688C12.4312 9.52502 11.3312 9.49002 11.0099 10.2688C11.0087 10.2713 11.0062 10.2738 11.0049 10.2775L8.50492 16.5275C8.31242 17.0075 8.54617 17.5538 9.02742 17.7463C10.2249 18.2288 10.4387 16.5325 10.7599 15.9388H12.9912L13.5049 17.2238C13.9637 18.3738 15.7099 17.6825 15.2462 16.5275L12.7449 10.2775ZM11.5099 14.0625L11.8749 13.1488L12.2399 14.0625H11.5099Z" fill="#0000FF"/>
<path d="M19.375 15.9375H17.8125V10.625C17.8125 9.38505 15.9375 9.3838 15.9375 10.625V16.875C15.9375 17.3925 16.3575 17.8125 16.875 17.8125H19.375C20.615 17.8125 20.6163 15.9375 19.375 15.9375Z" fill="#0000FF"/>
<path d="M22.8125 12.1112V10.6249C22.8125 9.38495 20.9375 9.3837 20.9375 10.6249V16.8749C20.9375 18.1149 22.8125 18.1162 22.8125 16.8749V15.0387C24.8188 17.2212 24.8838 17.8124 25.625 17.8124C26.4125 17.8124 26.8638 16.8787 26.3363 16.2637L24.015 13.5599L26.2938 11.2812C26.2963 11.2774 26.3 11.2749 26.3025 11.2712C26.3038 11.2699 26.305 11.2687 26.3063 11.2674C27.1575 10.3849 25.84 9.0837 24.9688 9.95494L22.8125 12.1112Z" fill="#0000FF"/>
</g>
<defs>
<clipPath id="clip0">
<rect width="30" height="30" fill="white"/>
</clipPath>
</defs>
</svg>
