<svg width="30" height="30" viewBox="0 0 30 30" fill="none" xmlns="http://www.w3.org/2000/svg">
<g clip-path="url(#clip0)">
<path d="M27.6968 2.30313C24.6259 -0.767768 19.5725 -0.767651 16.5016 2.30313L11.8902 6.91451C10.9978 7.80695 10.364 8.86135 9.98761 9.98377C8.83525 10.3714 7.78062 11.024 6.91455 11.8901L2.30317 16.5015C-0.767723 19.5723 -0.767723 24.6259 2.30317 27.6968C5.37389 30.7675 10.4274 30.7678 13.4984 27.6968L18.1098 23.0854C19.0022 22.193 19.636 21.1387 20.0124 20.0161C21.1648 19.6285 22.2194 18.9758 23.0855 18.1098L27.6968 13.4984C30.7678 10.4276 30.7678 5.37408 27.6968 2.30313ZM10.3445 15.9238C10.7214 16.7147 11.2362 17.4558 11.8902 18.1098C12.5275 18.747 13.2692 19.2695 14.0761 19.6557L9.76671 23.965C8.75292 24.9788 7.06045 24.9788 6.04666 23.965C5.01711 22.9354 5.01729 21.2628 6.04666 20.2333L10.3445 15.9238ZM16.866 21.8416L12.2546 26.4529C9.86761 28.8397 5.93029 28.8359 3.54717 26.4529C1.16218 24.0679 1.16218 20.1304 3.54717 17.7455L8.15855 13.1341C8.58306 12.7096 9.06558 12.3514 9.58823 12.0688C9.55085 12.7415 9.5986 13.4181 9.73161 14.0808C9.61724 14.1742 9.50726 14.2733 9.40255 14.3781L4.80295 18.9894C3.08592 20.7064 3.0858 23.492 4.80295 25.209C6.50427 26.9104 9.30945 26.9104 11.0108 25.209L15.6221 20.5977C17.3218 18.898 17.3493 16.1053 15.6221 14.3781C14.9326 13.6886 14.706 12.7094 14.9407 11.8286C15.6554 12.1359 16.3113 12.5793 16.8661 13.1342C19.2665 15.5348 19.2665 19.4409 16.866 21.8416ZM19.6556 14.0762C19.2787 13.2853 18.7638 12.5442 18.1099 11.8902C17.4726 11.2529 16.7309 10.7305 15.924 10.3443L20.2333 6.0349C21.2471 5.02111 22.9396 5.02111 23.9534 6.0349C24.983 7.06451 24.9946 8.73724 23.9651 9.76662L19.6556 14.0762ZM26.4529 12.2545L21.8416 16.8659C21.4171 17.2904 20.9345 17.6486 20.4119 17.9312C20.4493 17.2585 20.4015 16.5819 20.2685 15.9192C20.3828 15.8258 20.4929 15.7267 20.5976 15.6219L25.2089 11.0106C26.9103 9.30923 26.9103 6.49234 25.2089 4.79096C23.5076 3.08963 20.6907 3.08963 18.9894 4.79096L14.378 9.40234C12.6785 11.1019 12.6508 13.8947 14.378 15.6219C15.0676 16.3115 15.2942 17.2907 15.0595 18.1714C14.3448 17.8641 13.6889 17.4207 13.1341 16.8659C10.7335 14.4652 10.7335 10.5591 13.1341 8.15851L17.7455 3.54713C20.1305 1.16219 24.0678 1.16213 26.4529 3.54713C28.8379 5.93213 28.8379 9.86951 26.4529 12.2545Z" fill="#0000FF"/>
<path d="M25.5735 24.3293L24.3296 23.0855C23.9861 22.742 23.4292 22.742 23.0857 23.0855C22.7423 23.429 22.7423 23.9859 23.0857 24.3293L24.3297 25.5732C24.6731 25.9167 25.2301 25.9167 25.5735 25.5732C25.9171 25.2298 25.9171 24.6729 25.5735 24.3293Z" fill="#0000FF"/>
<path d="M6.91438 5.67068L5.67043 4.4268C5.32696 4.08332 4.77003 4.08332 4.42655 4.4268C4.08308 4.77033 4.08308 5.3272 4.42655 5.67068L5.67049 6.91456C6.01397 7.2581 6.5709 7.2581 6.91438 6.91456C7.25791 6.57109 7.25791 6.01421 6.91438 5.67068Z" fill="#0000FF"/>
<path d="M28.8213 17.7928L27.1221 17.3375C26.6535 17.2119 26.1705 17.4902 26.0448 17.9595C25.9191 18.4287 26.1976 18.911 26.6668 19.0367L28.366 19.492C28.8351 19.6177 29.3175 19.3393 29.4433 18.87C29.569 18.4009 29.2905 17.9186 28.8213 17.7928Z" fill="#0000FF"/>
<path d="M3.33299 10.9635L1.63378 10.5082C1.16526 10.3826 0.682277 10.6609 0.556535 11.1302C0.430852 11.5993 0.709347 12.0817 1.17857 12.2073C3.04401 12.7072 2.9519 12.6928 3.10594 12.6928C3.49424 12.6928 3.84973 12.4336 3.95497 12.0406C4.08071 11.5715 3.80221 11.0891 3.33299 10.9635Z" fill="#0000FF"/>
<path d="M19.4923 28.3663L19.037 26.667C18.9112 26.1978 18.4288 25.9193 17.9598 26.0451C17.4906 26.1709 17.2121 26.6532 17.3378 27.1224L17.7931 28.8216C17.9189 29.291 18.4015 29.5693 18.8704 29.4435C19.3396 29.3178 19.6181 28.8355 19.4923 28.3663Z" fill="#0000FF"/>
<path d="M12.6628 2.87795L12.2074 1.17873C12.0816 0.709517 11.5995 0.431139 11.1301 0.556763C10.6609 0.682505 10.3825 1.16479 10.5082 1.63401L10.9636 3.33328C11.0894 3.80262 11.5717 4.081 12.0408 3.95519C12.5101 3.82945 12.7885 3.34717 12.6628 2.87795Z" fill="#0000FF"/>
</g>
<defs>
<clipPath id="clip0">
<rect width="30" height="30" fill="white"/>
</clipPath>
</defs>
</svg>
