<svg width="30" height="32" viewBox="0 0 30 32" fill="none" xmlns="http://www.w3.org/2000/svg">
<path d="M0.591271 25.5928C3.36877 27.4344 6.60127 28.4074 9.93877 28.4074C14.8263 28.4074 19.305 26.4457 22.5513 22.884C25.6575 19.4752 27.3663 14.8947 27.2813 10.2464C28.4588 9.19369 29.8438 7.18363 29.8438 5.22451C29.8438 4.47351 29.0638 3.99679 28.4313 4.37947C27.325 5.05863 26.3163 5.23626 25.2788 4.93194C23.16 2.7743 20.0063 2.31978 17.3488 3.81655C15.0263 5.12263 13.735 7.51276 13.8513 10.1249C9.92752 9.62469 6.30252 7.56892 3.77502 4.37425C3.36002 3.85312 2.57252 3.91451 2.24252 4.50485C1.02502 6.6834 1.03752 9.20805 2.09627 11.2468C1.59252 11.3396 1.28127 11.7823 1.28127 12.2617C1.28127 14.3109 2.16377 16.1943 3.58502 17.4795C3.32002 17.7459 3.23252 18.1417 3.34502 18.4943C3.97002 20.456 5.38502 21.9894 7.15377 22.7573C5.23002 23.7173 3.10252 24.0373 1.20877 23.7944C0.228771 23.6559 -0.254979 25.0325 0.591271 25.5928ZM10.195 23.093C10.8963 22.5301 10.5238 21.3572 9.64377 21.3376C8.09377 21.3037 6.68252 20.5057 5.80377 19.2505C6.22752 19.2218 6.66627 19.1539 7.08377 19.0363C8.03502 18.7673 7.99002 17.3332 7.02377 17.1307C5.27002 16.7624 3.89377 15.4276 3.37752 13.7088C3.84877 13.8303 4.32877 13.8982 4.80752 13.9073C5.75627 13.9126 6.11502 12.6417 5.34127 12.1102C3.59752 10.9099 2.85377 8.79011 3.34627 6.79703C6.39127 10.0204 10.5225 11.9626 14.8925 12.182C15.5188 12.2225 15.9888 11.6073 15.8513 10.9843C15.2575 8.2951 16.695 6.41043 18.2388 5.54188C19.7663 4.67987 22.2188 4.41082 24.0988 6.47181C24.6575 7.08698 26.5425 7.11049 27.5013 6.8767C27.0713 7.72304 26.41 8.52628 25.7913 8.97818C25.5275 9.17148 25.3763 9.49278 25.3925 9.82844C25.5938 14.1189 24.0638 18.3846 21.195 21.5309C18.305 24.7008 14.3088 26.447 9.94002 26.447C8.20252 26.447 6.49877 26.1518 4.88877 25.5824C6.81377 25.1932 8.64252 24.3416 10.195 23.093Z" fill="#0000FF"/>
</svg>
