<svg width="30" height="30" viewBox="0 0 30 30" fill="none" xmlns="http://www.w3.org/2000/svg">
<path d="M3.38375 30H14.3888C14.9062 30 15.3263 29.58 15.3263 29.0625C15.3263 28.8625 15.3138 20.5125 15.3125 20.3125C15.3125 19.795 14.8925 19.375 14.375 19.375H11.5625V16.25H14.375C14.8925 16.25 15.3125 15.83 15.3125 15.3125V11.7912C15.3125 8.73625 17.7987 6.25 20.8538 6.25H23.4375V9.375H21.875C20.6688 9.375 19.6875 10.3562 19.6875 11.5625V15.3125C19.6875 15.83 20.1075 16.25 20.625 16.25H24.425L23.6438 19.375H20.625C20.1075 19.375 19.6875 19.795 19.6875 20.3125V29.0625C19.6875 29.58 20.1075 30 20.625 30H26.6162C28.4825 30 30 28.4825 30 26.6162V3.38375C30 1.5175 28.4825 0 26.6162 0H3.38375C1.5175 0 0 1.5175 0 3.38375V26.6175C0 28.4825 1.5175 30 3.38375 30ZM1.875 3.38375C1.875 2.55125 2.55125 1.875 3.38375 1.875H26.6175C27.45 1.875 28.1262 2.55125 28.1262 3.38375V26.6175C28.1262 27.45 27.45 28.1262 26.6175 28.1262H21.5625V21.25H24.375C24.805 21.25 25.18 20.9575 25.285 20.54L26.535 15.54C26.6825 14.9488 26.2362 14.375 25.625 14.375H21.5625V11.5625C21.5625 11.3925 21.705 11.25 21.875 11.25H24.375C24.8925 11.25 25.3125 10.83 25.3125 10.3125V5.3125C25.3125 4.795 24.8925 4.375 24.375 4.375H20.8538C16.765 4.375 13.4375 7.7025 13.4375 11.7912V14.375H10.625C10.1075 14.375 9.6875 14.795 9.6875 15.3125V20.3125C9.6875 20.83 10.1075 21.25 10.625 21.25H13.4375V28.125H3.38375C2.55125 28.125 1.875 27.4487 1.875 26.6162V3.38375Z" fill="#FF0000"/>
</svg>
