<svg width="30" height="30" viewBox="0 0 30 30" fill="none" xmlns="http://www.w3.org/2000/svg">
<path d="M5.9375 30H24.0625C27.3363 30 30 27.3363 30 24.0625V5.9375C30 2.66375 27.3363 0 24.0625 0H5.9375C2.66375 0 0 2.66375 0 5.9375V24.0625C0 27.3363 2.66375 30 5.9375 30ZM1.875 5.9375C1.875 3.6975 3.6975 1.875 5.9375 1.875H24.0625C26.3025 1.875 28.125 3.6975 28.125 5.9375V24.0625C28.125 26.3025 26.3025 28.125 24.0625 28.125H5.9375C3.6975 28.125 1.875 26.3025 1.875 24.0625V5.9375Z" fill="#FF0000"/>
<path d="M14.9999 22.6625C19.2249 22.6625 22.6624 19.225 22.6624 15C22.6624 10.775 19.2249 7.33752 14.9999 7.33752C10.7749 7.33752 7.3374 10.775 7.3374 15C7.3374 19.225 10.7749 22.6625 14.9999 22.6625ZM14.9999 9.21252C18.1912 9.21252 20.7874 11.8088 20.7874 15C20.7874 18.1913 18.1912 20.7875 14.9999 20.7875C11.8087 20.7875 9.2124 18.1913 9.2124 15C9.2124 11.8088 11.8087 9.21252 14.9999 9.21252Z" fill="#FF0000"/>
<path d="M22.9471 9.20252C24.1796 9.20252 25.1084 8.27752 25.1084 7.05127C25.1084 5.77252 24.1309 4.90002 22.9484 4.90002C21.7159 4.90002 20.7871 5.82502 20.7871 7.05127C20.7871 8.32752 21.7596 9.20252 22.9471 9.20252ZM23.1684 6.84502C23.5634 7.19377 22.6621 7.61752 22.6621 7.05252C22.6621 6.71502 23.1209 6.80252 23.1684 6.84502Z" fill="#FF0000"/>
</svg>
