<svg width="30" height="26" viewBox="0 0 30 26" fill="none" xmlns="http://www.w3.org/2000/svg">
<path d="M0.591271 22.4939C3.36877 24.2564 6.60127 25.1876 9.93877 25.1876C14.8263 25.1876 19.305 23.3101 22.5513 19.9014C25.6575 16.6389 27.3663 12.2551 27.2813 7.80636C28.4588 6.79886 29.8438 4.87511 29.8438 3.00011C29.8438 2.28136 29.0638 1.82511 28.4313 2.19136C27.325 2.84136 26.3163 3.01136 25.2788 2.72011C23.16 0.655109 20.0063 0.220109 17.3488 1.65261C15.0263 2.90261 13.735 5.19011 13.8513 7.69011C9.92752 7.21136 6.30252 5.24386 3.77502 2.18636C3.36002 1.68761 2.57252 1.74636 2.24252 2.31136C1.02502 4.39636 1.03752 6.81261 2.09627 8.76386C1.59252 8.85261 1.28127 9.27636 1.28127 9.73511C1.28127 11.6964 2.16377 13.4989 3.58502 14.7289C3.32002 14.9839 3.23252 15.3626 3.34502 15.7001C3.97002 17.5776 5.38502 19.0451 7.15377 19.7801C5.23002 20.6989 3.10252 21.0051 1.20877 20.7726C0.228771 20.6401 -0.254979 21.9576 0.591271 22.4939ZM10.195 20.1014C10.8963 19.5626 10.5238 18.4401 9.64377 18.4214C8.09377 18.3889 6.68252 17.6251 5.80377 16.4239C6.22752 16.3964 6.66627 16.3314 7.08377 16.2189C8.03502 15.9614 7.99002 14.5889 7.02377 14.3951C5.27002 14.0426 3.89377 12.7651 3.37752 11.1201C3.84877 11.2364 4.32877 11.3014 4.80752 11.3101C5.75627 11.3151 6.11502 10.0989 5.34127 9.59011C3.59752 8.44136 2.85377 6.41261 3.34627 4.50511C6.39127 7.59011 10.5225 9.44886 14.8925 9.65886C15.5188 9.69761 15.9888 9.10886 15.8513 8.51261C15.2575 5.93886 16.695 4.13511 18.2388 3.30386C19.7663 2.47886 22.2188 2.22136 24.0988 4.19386C24.6575 4.78261 26.5425 4.80511 27.5013 4.58136C27.0713 5.39136 26.41 6.16011 25.7913 6.59261C25.5275 6.77761 25.3763 7.08511 25.3925 7.40636C25.5938 11.5126 24.0638 15.5951 21.195 18.6064C18.305 21.6401 14.3088 23.3114 9.94002 23.3114C8.20252 23.3114 6.49877 23.0289 4.88877 22.4839C6.81377 22.1114 8.64252 21.2964 10.195 20.1014Z" fill="#FF0000"/>
</svg>
